<svg xmlns="http://www.w3.org/2000/svg" viewBox="0 0 160 160" fill="none" stroke="#cbb079" stroke-width=".7"><circle cx="80" cy="80" r="71"/><circle cx="80" cy="80" r="64" stroke-dasharray="1 6"/><circle cx="80" cy="80" r="52"/><ellipse cx="80" cy="80" rx="31" ry="61" transform="rotate(38 80 80)"/><path d="M80 3v22m0 110v22M3 80h22m110 0h22M28 28l15 15m74 74 15 15M28 132l15-15m74-74 15-15M80 38l10 32 32 10-32 10-10 32-10-32-32-10 32-10Z"/><circle cx="80" cy="80" r="10"/><circle cx="31" cy="57" r="3"/><circle cx="124" cy="111" r="3"/><path d="M71 17l9-9 9 9-9 9ZM71 143l9-9 9 9-9 9Z"/></svg>
